PathFileType	4	(X/Y/Z)	/Users/niels/Desktop/University/Third Semester/Perception and Action/Exam/Gymnastics Motion Tracking/Code for Gym Tracking/Analyzed Data/Webcam_Backflip/id6_2_baseline_Sports2D/id6_2_baseline_Sports2D_px_person00.trc
DataRate	CameraRate	NumFrames	NumMarkers	Units	OrigDataRate	OrigDataStartFrame	OrigNumFrames
29.810126582278482	29.810126582278482	12	22	m	29.810126582278482	0	158
Frame#	Time	Hip			RHip			RKnee			RAnkle			RBigToe			RSmallToe			RHeel			LHip			LKnee			LAnkle			LBigToe			LSmallToe			LHeel			Neck			Head			Nose			RShoulder			RElbow			RWrist			LShoulder			LElbow			LWrist		
		X1	Y1	Z1	X2	Y2	Z2	X3	Y3	Z3	X4	Y4	Z4	X5	Y5	Z5	X6	Y6	Z6	X7	Y7	Z7	X8	Y8	Z8	X9	Y9	Z9	X10	Y10	Z10	X11	Y11	Z11	X12	Y12	Z12	X13	Y13	Z13	X14	Y14	Z14	X15	Y15	Z15	X16	Y16	Z16	X17	Y17	Z17	X18	Y18	Z18	X19	Y19	Z19	X20	Y20	Z20	X21	Y21	Z21	X22	Y22	Z22
0	0.0	0.9805002970329558	-0.5845830860526292	0.0	0.9791557678899389	-0.5845884131162611	0.0	0.980493688682133	-0.682501787744465	0.0	0.9684234786972802	-0.7777280688827365	0.0	0.9992659987183592	-0.795162723640721	0.0	0.9898770348399721	-0.7978493765173126	0.0	0.9630621397156994	-0.7938193389318032	0.0	0.9804982173360077	-0.5832443435405998	0.0	0.9818392101214837	-0.6825012298089392	0.0	0.9711107911829634	-0.7737007718872839	0.0	1.0086610123585449	-0.7924800855611561	0.0	1.0046396812449505	-0.7897918772217887	0.0	0.9630668246332657	-0.7884526356729794	0.0	0.9898868152239556	-0.4518042682128102	0.0	1.0100123257159943	-0.3820552659374788	0.0	1.0207330438348914	-0.4196145898077068	0.0	0.9804995591525797	-0.4719194149971126	0.0	0.9845481679419243	-0.5389306312869406	0.0	1.0073723038893987	-0.5978740121786332	0.0	0.9885548618598117	-0.4692368962021442	0.0	0.9926260205767538	-0.5335599576027049	0.0	1.0114665529976936	-0.5911742558717319	0.0
1	0.03354564755838641	0.9800868199579091	-0.5855885901416998	0.0	0.9786230359907815	-0.5852400979765281	0.0	0.9804877185236395	-0.6822509730903528	0.0	0.9685509300039956	-0.777671694045425	0.0	0.9993094965178396	-0.7951755557129039	0.0	0.9897721845935219	-0.7979416512029174	0.0	0.9630320646963186	-0.7940028667700187	0.0	0.9805225264017551	-0.5836497359177767	0.0	0.9819608151205669	-0.6822773445784448	0.0	0.9710989333262949	-0.7736487598502826	0.0	1.0080395398858004	-0.792686565191584	0.0	1.0036304744777045	-0.7899246289804255	0.0	0.9626336672321556	-0.7884629958070531	0.0	0.9901650896170308	-0.4515572562924684	0.0	1.0095942127884525	-0.3819410837003416	0.0	1.020955986490554	-0.41895248109573163	0.0	0.9807571886136746	-0.4719340632784656	0.0	0.9850916676679679	-0.5392757939986058	0.0	1.0077260195655342	-0.5982432499966545	0.0	0.9884430646113663	-0.4693850107291222	0.0	0.992402350379548	-0.5337230498711055	0.0	1.0115412712107614	-0.5917123939388842	0.0
2	0.06709129511677282	0.9796803272751085	-0.5863582673894642	0.0	0.9782374739225345	-0.5856361481766351	0.0	0.9805168306808018	-0.6820279594655064	0.0	0.9687444816193481	-0.7776700965334572	0.0	0.9994372139605101	-0.7951610513499059	0.0	0.9897764633984623	-0.7980100515267522	0.0	0.9630287361002563	-0.794200289256176	0.0	0.9804597116972661	-0.5838823027069489	0.0	0.9820131715796362	-0.6820735734575522	0.0	0.9710744161296451	-0.7736443559413199	0.0	1.0075040953869296	-0.7927837730380863	0.0	1.0027306177424204	-0.7899550879741063	0.0	0.9622780094373198	-0.788511799556632	0.0	0.9903973259709914	-0.4512265869508704	0.0	1.009230147604624	-0.38186749776273626	0.0	1.0211570771553753	-0.4182857762595903	0.0	0.9811039875863171	-0.47189808223237634	0.0	0.9859068306496858	-0.5395877083278701	0.0	1.0085298272903127	-0.5984725409059051	0.0	0.9881986479307936	-0.4694386601608187	0.0	0.9920275831557405	-0.5338821551599015	0.0	1.0116218319480565	-0.5921122609700104	0.0
3	0.10063694267515924	0.9792966733916451	-0.5867209376848608	0.0	0.9780844775738148	-0.5856336572020596	0.0	0.9806251338650275	-0.6818379032959059	0.0	0.9690431419845957	-0.7777467866746212	0.0	0.9997214225237789	-0.7951281280211024	0.0	0.9900228453048594	-0.7980576873881028	0.0	0.963075260555008	-0.7944290379938186	0.0	0.9802410835415241	-0.5837872989055161	0.0	0.9819954893022435	-0.6818834620878111	0.0	0.9710305526071822	-0.773703107088112	0.0	1.0071084973151265	-0.7927494963841446	0.0	1.0019945398847043	-0.7898800705701772	0.0	0.9620634405387545	-0.7886089494860742	0.0	0.9905258384625037	-0.4507894783061034	0.0	1.0089368097158649	-0.3818473882054802	0.0	1.0213309971476758	-0.41768811730442484	0.0	0.9815963969252185	-0.4717272231644195	0.0	0.9872336004766635	-0.5397781802386173	0.0	1.010205924891777	-0.5984717043287501	0.0	0.9876732396588896	-0.46931970471269807	0.0	0.9914178391260134	-0.5339640127168516	0.0	1.0117500424061499	-0.5922083269592285	0.0
4	0.13418259023354565	0.9789455768355265	-0.5866496752450165	0.0	0.978181001853707	-0.5852708474466077	0.0	0.98086243467037	-0.6816566944389951	0.0	0.9694322305310944	-0.7778821363269658	0.0	1.0002083117591007	-0.7951439801090261	0.0	0.9906136283599831	-0.7981210859374335	0.0	0.9631842350280713	-0.7947061371390584	0.0	0.9798344470684015	-0.583306333802254	0.0	0.9819602130204097	-0.6816649465790918	0.0	0.9709694637701515	-0.7737926599755086	0.0	1.0068612825748688	-0.792631222471482	0.0	1.0014206955361622	-0.7897852832792742	0.0	0.9620030638318848	-0.7887213422884208	0.0	0.9905029095718787	-0.45030311786649685	0.0	1.0087007550044877	-0.3818544683832455	0.0	1.0214809474719786	-0.41730369991232624	0.0	0.9822619239689101	-0.4713547086090024	0.0	0.9892244467041418	-0.5397721539939135	0.0	1.0130656213526001	-0.5982606450249051	0.0	0.9867288060287609	-0.4689867425698915	0.0	0.9905213690302533	-0.5338665147227152	0.0	1.0118908713189916	-0.591895079759598	0.0
5	0.16772823779193205	0.9786129852732128	-0.586292149720533	0.0	0.9784758356963641	-0.5847214654892979	0.0	0.9812511435322825	-0.6814535871914378	0.0	0.969838497489922	-0.7780477979925624	0.0	1.0008897739219977	-0.7952958782496659	0.0	0.9915612559179263	-0.7982362707861859	0.0	0.9633334507205382	-0.7950276867595982	0.0	0.9792609424194242	-0.5825307248506557	0.0	0.98195764301523	-0.6813645774518325	0.0	0.9708971300591359	-0.7738702248163637	0.0	1.0067187895176375	-0.7924793568481792	0.0	1.0009592952763267	-0.7897665727321261	0.0	0.9620362753990971	-0.7888081778513882	0.0	0.9902955396478396	-0.4498930139030699	0.0	1.0085006831676009	-0.38184358462465573	0.0	1.0215905048184382	-0.4172715583482296	0.0	0.9830900071860733	-0.47077931787636734	0.0	0.9920026371881449	-0.5395134897123336	0.0	1.0173736247172376	-0.5978394140349536	0.0	0.9852904403562346	-0.4684412463282895	0.0	0.9893499375268334	-0.5335142210841024	0.0	1.011957648467562	-0.5911084514628603	0.0
6	0.20127388535031848	0.9782627956116163	-0.5858738518471298	0.0	0.9788502217388594	-0.5841574221446153	0.0	0.9817558165669612	-0.6812277917132308	0.0	0.9701699460203804	-0.7782406298610502	0.0	1.001767946475958	-0.7956179926497534	0.0	0.9928318155064172	-0.7984068285335912	0.0	0.9634604273992432	-0.7953472346283963	0.0	0.9786035475772105	-0.5816368701001364	0.0	0.982021390713068	-0.6809626926856205	0.0	0.9708312340313582	-0.7739254875572286	0.0	1.0066634157077008	-0.7923306825244536	0.0	1.0006034485202828	-0.7898601259130699	0.0	0.9620864027619699	-0.7888609999625681	0.0	0.9898767062022599	-0.449689452998652	0.0	1.008307067151774	-0.3817882795758896	0.0	1.0216156263316736	-0.4176548702982704	0.0	0.984003660280267	-0.47003953459337755	0.0	0.9957026259354302	-0.5388853733649542	0.0	1.0233741888045622	-0.5970256271316985	0.0	0.9833990567279165	-0.4677242273789676	0.0	0.9880605851520626	-0.5328408959156336	0.0	1.0119454456124026	-0.5897161285800068	0.0
7	0.2348195329087049	0.9778627666310714	-0.585546251023326	0.0	0.9791450323300553	-0.5836505883473211	0.0	0.9822862469804677	-0.6810372983580258	0.0	0.9703664079895555	-0.7784700924215449	0.0	1.0028919124428508	-0.7960618205815236	0.0	0.9943982534578527	-0.7986132380713511	0.0	0.9634963821348589	-0.7955831856962104	0.0	0.9779902601168554	-0.5807828609458994	0.0	0.9821596697307243	-0.6805210597516173	0.0	0.9708068864652639	-0.7739844485540284	0.0	1.0067375143205166	-0.7922472978537684	0.0	1.000448871363771	-0.7900431723749181	0.0	0.9621314610069731	-0.7889047370608839	0.0	0.9892574853817431	-0.4497473363418252	0.0	1.0080821160168487	-0.38171297641357793	0.0	1.0215200813497778	-0.4184217873899966	0.0	0.9848632738460991	-0.46918416193359835	0.0	1.000424413913887	-0.5376342260334754	0.0	1.0312481496830175	-0.5953492800834788	0.0	0.9812308623191348	-0.4669114491886038	0.0	0.9871116633294976	-0.5317407584131136	0.0	1.012210108822361	-0.5874428466421442	0.0
8	0.2683651804670913	0.9774304978716506	-0.5853322996988659	0.0	0.9792244377742831	-0.5831961528002082	0.0	0.9827315530000353	-0.6809897804078799	0.0	0.9704189670930086	-0.7787354368323921	0.0	1.00419016230067	-0.7965270533418168	0.0	0.9961615002657652	-0.7988374746628137	0.0	0.9634088297100654	-0.7956679956565209	0.0	0.9775456144188823	-0.5800783486952559	0.0	0.9823239568566766	-0.6801896563164272	0.0	0.9708530342636	-0.7740953570355869	0.0	1.006890798848539	-0.7923169076608723	0.0	1.0005310064240807	-0.7902890968155624	0.0	0.9621817540659513	-0.7889812754545347	0.0	0.9885242019214212	-0.4500484700322225	0.0	1.007822546410405	-0.38168507015540315	0.0	1.02132186243591	-0.4194626881986825	0.0	0.9855221403873213	-0.4682911475764663	0.0	1.0061473723787835	-0.5353972251780083	0.0	1.0410265692040372	-0.5920314362859204	0.0	0.9790672036011218	-0.46609647317283276	0.0	0.9873395139852634	-0.5300623041151463	0.0	1.0137569523542107	-0.5838607436378774	0.0
9	0.3019108280254777	0.9770499721127175	-0.5851748518324147	0.0	0.9790470999230882	-0.5827955531011119	0.0	0.9830017247174965	-0.6812015659960442	0.0	0.970360386833819	-0.7790409392069385	0.0	1.0053824650070327	-0.7969173856026384	0.0	0.9978791044732969	-0.7990928855828607	0.0	0.9632243645545578	-0.795607962576924	0.0	0.9773457312539482	-0.5796001456783791	0.0	0.9824245271355935	-0.68014677403558	0.0	0.9709735644889921	-0.7743114460597191	0.0	1.0069102611296479	-0.7925922438939169	0.0	1.000700004865993	-0.7905899918688236	0.0	0.9622378482102086	-0.7891311110097048	0.0	0.987809701788102	-0.45055510724771486	0.0	1.0076274992717311	-0.3817550470090301	0.0	1.0211028889766884	-0.42061050522333615	0.0	0.9858870355825746	-0.4674740201907593	0.0	1.0126905830372093	-0.5318273700966035	0.0	1.0525038372721836	-0.5861148321669054	0.0	0.977225584939574	-0.46535902116390043	0.0	0.9897282342560282	-0.5275857133788232	0.0	1.0181468872740962	-0.5783731568416458	0.0
10	0.3354564755838641	0.9768237592584067	-0.5850152345890797	0.0	0.9786878763424331	-0.5824981307538118	0.0	0.9830629390971957	-0.6817348110413507	0.0	0.9702423677113186	-0.7794142553403764	0.0	1.0061597952428818	-0.7971880611359644	0.0	0.9992469628686441	-0.7994294070042015	0.0	0.9630178415361533	-0.7954845509744678	0.0	0.9774031883283029	-0.5793826326150262	0.0	0.982415305420865	-0.6804915239992408	0.0	0.9711728638967054	-0.7746438749539689	0.0	1.006646160036379	-0.7930322222947226	0.0	1.0008104208335376	-0.790902381775485	0.0	0.9623325261983534	-0.7893500351872644	0.0	0.9872321002773868	-0.45121248673692	0.0	1.0076714458047127	-0.381905763201731	0.0	1.020954688968463	-0.42168046776495605	0.0	0.9859602729685993	-0.46683868639914716	0.0	1.019730156715058	-0.5267079106519171	0.0	1.0651457529583614	-0.5767351265529076	0.0	0.9759828861589024	-0.4647413460179515	0.0	0.9948805621837651	-0.5239545342862875	0.0	1.0267074237123508	-0.5702194456670442	0.0
11	0.3690021231422505	0.9768069090297775	-0.5848547557987338	0.0	0.9782975595938014	-0.5823628680524724	0.0	0.9829750540252317	-0.6825328446495764	0.0	0.9701239054882379	-0.7798682833812374	0.0	1.0063729431898014	-0.7973372256423404	0.0	1.0000417376032418	-0.7998649370246581	0.0	0.962864138630114	-0.7953808934524635	0.0	0.9776664521831467	-0.5793953489171879	0.0	0.9823480021499944	-0.6811616098060126	0.0	0.9714912370564637	-0.7750118933526824	0.0	1.0062312091814625	-0.7934838455674704	0.0	1.000960220484878	-0.7910959969618573	0.0	0.9625635611266726	-0.7895471216125254	0.0	0.986867485010842	-0.4519257026181252	0.0	1.0080580962801449	-0.38206846516109855	0.0	1.0209134739914922	-0.42251974870646997	0.0	0.9858414616847133	-0.4664363886960715	0.0	1.0268430986146364	-0.5199524010693832	0.0	1.0780384156044382	-0.5633518627944577	0.0	0.9754990556725586	-0.464237931046025	0.0	1.0026034300175068	-0.518673864984039	0.0	1.039740706834419	-0.5585924857008849	0.0
